HIERARCHY
ROOT Pelvis
{
	OFFSET 0.000000 0.000000 0.000000
	CHANNELS 6 Xposition Yposition Zposition Xrotation Yrotation Zrotation
	JOINT LeftUpLeg_virtual
	{
		OFFSET 0.000000 0.000000 0.000000
		CHANNELS 3 Xrotation Yrotation Zrotation
		JOINT LeftUpLeg
		{
			OFFSET 18.735201 -5.666702 -4.541200
			CHANNELS 3 Xrotation Yrotation Zrotation
			JOINT LeftLeg
			{
				OFFSET -0.021200 -31.938179 0.493100
				CHANNELS 3 Xrotation Yrotation Zrotation
				JOINT LeftFoot
				{
					OFFSET 0.021200 -31.938179 -4.336299
					CHANNELS 3 Xrotation Yrotation Zrotation
					JOINT LeftToeBase
					{
						OFFSET 0.943001 -26.722000 15.023500
						CHANNELS 3 Xrotation Yrotation Zrotation
						End Site
						{
							OFFSET 0 0 0
						}
					}
				}
			}
		}
	}
	JOINT RightUpLeg_virtual
	{
		OFFSET 0.000000 0.000000 0.000000
		CHANNELS 3 Xrotation Yrotation Zrotation
		JOINT RightUpLeg
		{
			OFFSET -18.735201 -5.666702 -4.541200
			CHANNELS 3 Xrotation Yrotation Zrotation
			JOINT RightLeg
			{
				OFFSET 0.018946 -31.938133 0.493100
				CHANNELS 3 Xrotation Yrotation Zrotation
				JOINT RightFoot
				{
					OFFSET -0.018946 -31.938126 -4.336299
					CHANNELS 3 Xrotation Yrotation Zrotation
					JOINT RightToeBase
					{
						OFFSET -0.943001 -26.722004 15.023500
						CHANNELS 3 Xrotation Yrotation Zrotation
						End Site
						{
							OFFSET 0 0 0
						}
					}
				}
			}
		}
	}
	JOINT Hips_virtual
	{
		OFFSET 0.000000 0.000000 0.000000
		CHANNELS 3 Xrotation Yrotation Zrotation
		JOINT Hips
		{
			OFFSET -0.000000 -0.000000 -0.000000
			CHANNELS 3 Xrotation Yrotation Zrotation
			JOINT Spine
			{
				OFFSET 0.000000 10.199997 -0.299500
				CHANNELS 3 Xrotation Yrotation Zrotation
				JOINT Spine1
				{
					OFFSET 0.000000 11.900002 -1.516600
					CHANNELS 3 Xrotation Yrotation Zrotation
					JOINT Spine2
					{
						OFFSET 0.000000 13.600006 -2.842500
						CHANNELS 3 Xrotation Yrotation Zrotation
						JOINT Neck_virtual
						{
							OFFSET 0.000000 0.000000 0.000000
							CHANNELS 3 Xrotation Yrotation Zrotation
							JOINT Neck
							{
								OFFSET 0.000000 9.624100 -2.890100
								CHANNELS 3 Xrotation Yrotation Zrotation
								JOINT Head
								{
									OFFSET 0.000000 14.068802 -1.351900
									CHANNELS 3 Xrotation Yrotation Zrotation
									End Site
									{
										OFFSET 0 0 0
									}
								}
							}
						}
						JOINT LeftShoulder_virtual
						{
							OFFSET 0.000000 0.000000 0.000000
							CHANNELS 3 Xrotation Yrotation Zrotation
							JOINT LeftShoulder
							{
								OFFSET 15.263000 10.923401 -0.547700
								CHANNELS 3 Xrotation Yrotation Zrotation
								JOINT LeftArm
								{
									OFFSET 25.438599 -2.830597 -13.032500
									CHANNELS 3 Xrotation Yrotation Zrotation
									JOINT LeftForeArm
									{
										OFFSET 29.960503 0.000000 0.000000
										CHANNELS 3 Xrotation Yrotation Zrotation
										JOINT LeftHand
										{
											OFFSET 27.849251 0.000000 0.000000
											CHANNELS 3 Xrotation Yrotation Zrotation
											End Site
											{
												OFFSET 0 0 0
											}
										}
									}
								}
							}
						}
						JOINT RightShoulder_virtual
						{
							OFFSET 0.000000 0.000000 0.000000
							CHANNELS 3 Xrotation Yrotation Zrotation
							JOINT RightShoulder
							{
								OFFSET -15.263000 10.923401 -0.547700
								CHANNELS 3 Xrotation Yrotation Zrotation
								JOINT RightArm
								{
									OFFSET -25.438599 -2.830597 -13.032500
									CHANNELS 3 Xrotation Yrotation Zrotation
									JOINT RightForeArm
									{
										OFFSET -29.960503 0.000000 0.000000
										CHANNELS 3 Xrotation Yrotation Zrotation
										JOINT RightHand
										{
											OFFSET -27.849251 0.000000 0.000000
											CHANNELS 3 Xrotation Yrotation Zrotation
											End Site
											{
												OFFSET 0 0 0
											}
										}
									}
								}
							}
						}
					}
				}
			}
		}
	}
}
MOTION
Frames: 9
Frame Time: 0.03333333
0.712335 114.050415 1.853561 0.000000 0.000000 0.000000 -85.449792 4.193483 8.621388 -7.950811 15.015638 16.922407 8.840005 2.547922 0.006918 27.086524 38.238336 -29.970467 0.000000 0.000000 0.000000 -85.950199 6.376604 8.533179 -9.415324 -15.003231 -19.101606 11.051361 -5.179730 -7.619333 24.886341 -23.828351 33.093800 0.000000 0.000000 0.000000 -85.702400 5.280087 9.623083 0.004732 -1.541592 -3.211011 5.418446 0.483311 1.003427 7.104027 -1.480799 -0.962521 0.000000 0.000000 0.000000 5.846058 -1.698523 -0.969166 -0.510189 -0.409460 0.633103 0.000000 0.000000 0.000000 6.611793 -1.717543 -1.355654 1.066207 1.624374 -8.211143 33.355454 -32.543413 -36.357039 -6.009133 -81.693803 -4.888031 0.000000 0.000000 0.000000 6.067597 -1.399275 -1.465303 1.887504 -1.528984 20.945865 -31.165665 54.600973 47.162152 178.933116 73.198523 -178.096103 0.000000 0.000000 0.000000 
0.700772 114.019661 1.333839 0.000000 0.000000 0.000000 -86.356097 3.982706 8.893394 -6.524756 15.081725 16.568712 8.944614 2.954496 0.098370 25.902063 38.513832 -29.689569 0.000000 0.000000 0.000000 -87.039293 6.273925 9.012792 -8.336884 -15.536963 -19.048791 10.450662 -5.249942 -7.780712 23.668812 -24.638849 32.772354 0.000000 0.000000 0.000000 -86.720392 5.148466 9.921423 -0.006537 -1.585204 -3.212214 5.516602 0.558027 1.032322 6.945727 -1.642355 -1.108081 0.000000 0.000000 0.000000 5.625636 -1.843406 -1.097987 -0.716572 -0.479414 0.630949 0.000000 0.000000 0.000000 6.491092 -1.883771 -1.542104 1.078576 1.593898 -7.660076 32.748623 -32.237912 -37.891707 -7.559053 -81.762214 -6.292250 0.000000 0.000000 0.000000 5.919199 -1.531563 -1.596976 1.855195 -1.461918 19.447401 -36.815836 53.586024 51.473296 177.923737 75.067495 -177.286398 0.000000 0.000000 0.000000 
0.674413 113.998055 1.035358 0.000000 0.000000 0.000000 -86.955657 3.817467 9.022173 -6.159258 15.335329 16.768606 9.504828 3.340314 0.147776 25.710801 38.531764 -29.835332 0.000000 0.000000 0.000000 -87.699083 6.077006 9.222289 -7.766026 -16.037262 -18.906619 10.063699 -5.529724 -7.880951 22.245542 -25.960753 32.150585 0.000000 0.000000 0.000000 -87.256438 4.989318 10.032762 -0.025364 -1.665728 -3.257472 5.643732 0.619289 1.096705 6.840376 -1.742889 -1.203459 0.000000 0.000000 0.000000 5.518126 -1.914308 -1.192399 -0.722042 -0.548591 0.596057 0.000000 0.000000 0.000000 6.401792 -1.973012 -1.690653 1.079197 1.595861 -7.175975 32.225034 -32.029175 -38.879551 -9.069099 -81.780205 -7.617763 0.000000 0.000000 0.000000 5.762547 -1.592508 -1.676582 1.818296 -1.385253 18.183147 -40.265591 52.637795 54.012788 176.692937 77.067497 -176.244617 0.000000 0.000000 0.000000 
0.643204 113.995590 0.972637 0.000000 0.000000 0.000000 -87.158214 3.760321 9.043713 -6.689425 15.675252 17.339122 10.170352 3.741685 0.249264 26.279686 38.516526 -30.093216 0.000000 0.000000 0.000000 -87.865603 5.905876 9.203373 -7.882054 -16.346975 -18.788107 9.970077 -5.767448 -7.925266 22.103611 -26.856983 31.894282 0.000000 0.000000 0.000000 -87.310711 4.834328 9.980269 0.037418 -1.736583 -3.351663 5.780997 0.635173 1.151557 6.798523 -1.779467 -1.242116 0.000000 0.000000 0.000000 5.549876 -1.915818 -1.237313 -0.515292 -0.607284 0.530597 0.000000 0.000000 0.000000 6.357092 -1.987482 -1.784756 1.061760 1.643338 -6.739519 31.951717 -32.070863 -39.214701 -10.336107 -81.707456 -8.708655 0.000000 0.000000 0.000000 5.628174 -1.585742 -1.692762 1.783376 -1.322078 17.356221 -40.228370 52.069056 53.825924 175.739388 78.599754 -175.437329 0.000000 0.000000 0.000000 
0.610711 114.026497 1.101460 0.000000 0.000000 0.000000 -86.906453 3.786991 8.923164 -7.672994 15.622965 17.947741 10.456413 4.024490 0.586123 26.886635 38.620389 -30.094302 0.000000 0.000000 0.000000 -87.566720 5.828474 9.035515 -8.601856 -16.230889 -18.659616 9.976096 -5.740781 -8.048608 24.008301 -26.913380 32.169750 0.000000 0.000000 0.000000 -86.915127 4.737825 9.818590 0.057044 -1.851633 -3.408926 5.897112 0.600844 1.178716 6.811439 -1.762816 -1.229917 0.000000 0.000000 0.000000 5.697085 -1.870809 -1.229322 -0.115405 -0.645651 0.439979 0.000000 0.000000 0.000000 6.353255 -1.941350 -1.811608 1.034615 1.733756 -6.348049 31.974769 -32.454313 -39.020092 -10.963333 -81.477368 -9.214814 0.000000 0.000000 0.000000 5.544238 -1.537202 -1.642599 1.769229 -1.199988 17.050700 -36.223782 51.831218 50.785523 175.795655 79.073264 -175.532173 0.000000 0.000000 0.000000 
0.562396 114.092651 1.377033 0.000000 0.000000 0.000000 -86.231405 3.843668 8.648485 -8.719710 15.037099 18.381443 10.112411 4.101672 1.191273 27.324088 38.797646 -29.866635 0.000000 0.000000 0.000000 -86.897034 5.845136 8.750902 -9.675760 -15.580783 -18.400707 9.975840 -5.491681 -8.304661 26.942228 -26.543987 32.447032 0.000000 0.000000 0.000000 -86.205081 4.706145 9.530803 0.035998 -1.957468 -3.456620 5.962299 0.508969 1.173956 6.858886 -1.712039 -1.173949 0.000000 0.000000 0.000000 5.922668 -1.806270 -1.173562 0.434637 -0.653758 0.332949 0.000000 0.000000 0.000000 6.388669 -1.861109 -1.772702 1.005680 1.901511 -6.004394 32.272897 -33.113706 -38.535272 -10.996342 -81.268282 -9.199572 0.000000 0.000000 0.000000 5.517706 -1.467498 -1.533071 1.784802 -1.027212 17.232388 -28.628282 51.350055 45.384660 176.863432 78.036837 -176.546142 0.000000 0.000000 0.000000 
0.525297 114.152435 1.770329 0.000000 0.000000 0.000000 -85.332012 3.935951 8.267888 -9.809071 14.264645 18.626809 9.313287 3.999518 1.874828 27.585737 38.878536 -29.634920 0.000000 0.000000 0.000000 -85.964139 5.949102 8.384997 -10.983383 -14.772062 -18.054591 10.082862 -5.380786 -8.602997 29.266766 -26.528415 32.257057 0.000000 0.000000 0.000000 -85.310586 4.733154 9.131743 0.040977 -1.989257 -3.511841 5.960060 0.362910 1.164059 6.898712 -1.666232 -1.082954 0.000000 0.000000 0.000000 6.152388 -1.748454 -1.091834 1.070753 -0.634017 0.223659 0.000000 0.000000 0.000000 6.441332 -1.789771 -1.687050 0.981699 2.130198 -5.715954 32.762201 -33.943551 -37.983864 -10.496854 -81.167673 -8.724188 0.000000 0.000000 0.000000 5.527306 -1.403206 -1.380258 1.817898 -0.896670 17.800848 -18.894513 50.007626 38.968186 178.293400 75.526811 -177.890242 0.000000 0.000000 0.000000 
0.499685 114.163712 2.181522 0.000000 0.000000 0.000000 -84.360718 4.099859 7.828331 -11.213624 13.585098 18.898092 8.534438 3.786807 2.426739 27.815964 38.729560 -29.545479 0.000000 0.000000 0.000000 -84.938101 6.139744 7.972533 -12.483648 -14.156771 -17.737412 10.337848 -5.561004 -8.833053 30.555582 -26.980762 31.728114 0.000000 0.000000 0.000000 -84.325748 4.810933 8.651101 0.043256 -2.000418 -3.585965 5.888112 0.169639 1.161868 6.905490 -1.659285 -0.957159 0.000000 0.000000 0.000000 6.321563 -1.724732 -0.989348 1.720900 -0.583394 0.123119 0.000000 0.000000 0.000000 6.489050 -1.755559 -1.559854 0.965943 2.409247 -5.525774 33.286391 -34.731512 -37.574189 -9.373249 -81.088306 -7.659484 0.000000 0.000000 0.000000 5.537738 -1.376939 -1.199002 1.852101 -0.825192 18.680501 -9.272977 47.506469 33.366512 179.274120 72.140724 -178.786977 0.000000 0.000000 0.000000 
0.477780 114.121902 2.640224 0.000000 0.000000 0.000000 -83.386843 4.345231 7.370327 -13.093775 13.124288 19.346668 8.318268 3.537821 2.731159 28.327813 38.415719 -29.632356 0.000000 0.000000 0.000000 -83.916073 6.380151 7.484610 -14.100552 -13.710451 -17.550026 10.799566 -5.808326 -8.945120 31.533822 -27.222800 31.386341 0.000000 0.000000 0.000000 -83.324585 4.933427 8.148792 0.095597 -1.944264 -3.644046 5.762540 -0.036077 1.154919 6.855114 -1.712963 -0.803378 0.000000 0.000000 0.000000 6.392886 -1.756703 -0.873897 2.315931 -0.510092 0.041257 0.000000 0.000000 0.000000 6.516397 -1.775085 -1.401958 0.969048 2.740249 -5.481703 33.806025 -35.338760 -37.335996 -7.700390 -80.997868 -6.053576 0.000000 0.000000 0.000000 5.516978 -1.406489 -1.010361 1.879080 -0.894710 19.820403 -1.292433 44.209516 29.580538 179.758995 68.721976 -179.277453 0.000000 0.000000 0.000000 
